<svg width="487" height="495" viewBox="0 0 487 495" fill="none" xmlns="http://www.w3.org/2000/svg">
<path d="M91.8249 1.26584C83.3424 3.27803 77.0815 9.3146 74.8094 17.5646C72.4868 25.8146 73.0927 26.5691 80.9188 25.0097C89.1993 23.3496 107.275 23.3496 115.101 25.0097C122.17 26.5691 122.422 26.3176 120.958 19.4259C118.08 5.79327 105.457 -2.05428 91.8249 1.26584Z" stroke="black" stroke-miterlimit="10"/>
<path d="M85.1096 24.3554C78.8488 25.2106 74.86 26.1664 74.2036 26.9712C73.8502 27.3234 73.6987 28.7319 73.8502 30.3417C74.0521 32.8569 74.0016 33.0078 73.1433 32.5048C72.4364 32.0017 72.0325 32.1526 71.1237 33.0581C69.508 34.6679 69.6089 38.5916 71.3256 41.9621C72.0325 43.3203 72.8908 45.4331 73.2443 46.5901C74.1026 49.4575 75.4659 50.6648 76.8291 49.8599C77.5865 49.3569 77.8389 49.3569 77.9904 49.8599C78.1419 50.212 78.5963 51.8218 79.1012 53.4819C80.7169 58.8142 84.0493 62.5367 90.8656 66.6617C93.895 68.4727 94.3495 68.6236 97.9343 68.6236C101.62 68.5733 101.923 68.4727 105.811 66.1587C112.425 62.1846 115.354 58.5123 116.969 52.2745C117.828 48.9544 117.929 48.8538 118.787 49.6084C119.645 50.4133 119.797 50.363 120.655 49.4575C121.715 48.4011 123.887 43.4209 125.149 39.2959C126.462 34.9697 124.745 30.9453 122.271 32.5048C121.362 33.0581 121.312 32.9575 121.564 30.2411C121.867 26.7197 121.715 26.5185 116.919 25.4118C108.739 23.5505 94.4504 23.0475 85.1096 24.3554Z" stroke="black" stroke-miterlimit="10"/>
<path d="M83.4939 62.4364C83.191 62.7886 82.8375 65.505 82.7366 68.5233C82.6019 72.1117 81.8782 74.4593 80.5655 75.566C75.5669 79.6407 75.8698 79.1879 77.2836 80.6971C77.9399 81.4013 79.9091 82.6589 81.5753 83.4135C92.5318 88.5949 108.537 87.8403 117.525 81.8038C120.706 79.6407 120.706 79.3388 117.424 76.8739C113.788 74.1574 113.586 73.755 113.284 67.97C112.93 62.1346 112.526 61.38 110.658 62.9898C109.901 63.5934 107.629 65.1026 105.558 66.3602C102.024 68.5233 101.62 68.6239 97.9848 68.6239C94.3495 68.6239 93.9455 68.473 90.4112 66.4105C88.3411 65.2032 86.0185 63.6437 85.3116 62.9898C84.2513 62.034 83.8979 61.9334 83.4939 62.4364Z" stroke="black" stroke-miterlimit="10"/>
<path d="M119.645 80.2447C118.03 82.0054 113.132 84.2691 108.336 85.5267C97.8839 88.2935 82.8881 85.8788 77.1322 80.5465C75.9204 79.3895 75.5669 79.2889 74.3552 79.792C67.034 82.6593 59.6118 85.6776 58.602 86.1807C57.7605 86.5831 57.1714 92.0495 56.8348 102.58C56.1785 125.117 56.2794 129.996 57.5417 136.787C61.581 158.116 62.1364 166.769 60.6216 182.464C59.2584 196.449 58.905 195.493 66.0747 197.103C87.1293 201.781 112.88 201.63 132.268 196.65C137.57 195.292 137.418 195.694 136.56 186.841C134.742 167.876 135.045 161.738 138.681 140.51C140.7 128.94 140.852 125.318 139.943 113.396C139.64 109.22 139.387 101.423 139.438 96.0404C139.438 88.3438 139.337 86.1807 138.781 85.8788C138.428 85.6776 136.459 85.0739 134.389 84.4703C132.319 83.8666 128.431 82.4078 125.704 81.2005C122.439 79.7584 120.42 79.4398 119.645 80.2447Z" stroke="black" stroke-miterlimit="10"/>
<path d="M139.993 86.5828C138.579 87.9914 139.741 123.054 141.255 124.814C141.962 125.619 142.164 125.619 144.386 124.764C145.648 124.261 150.142 122.651 154.282 121.193C163.825 117.872 163.32 118.325 162.916 113.647C161.654 99.7124 156.1 90.2048 147.466 87.3374C143.931 86.1804 140.751 85.8283 139.993 86.5828Z" stroke="black" stroke-miterlimit="10"/>
<path d="M49.9676 87.4375C40.8795 90.3551 35.4266 99.3091 34.1139 113.545C33.6595 118.123 34.1644 118.777 39.1123 120.286C41.0814 120.889 45.4235 122.348 48.7054 123.555C53.6029 125.366 54.8651 125.618 55.37 125.115C56.8342 123.606 57.844 88.4436 56.4808 87.0854C55.6224 86.2302 53.2999 86.3811 49.9676 87.4375Z" stroke="black" stroke-miterlimit="10"/>
<path d="M34.4168 119.331C34.1138 119.633 33.8614 120.74 33.8614 121.746C33.8614 122.752 33.306 125.72 32.5991 128.286C29.7211 138.95 27.752 147.502 26.5907 154.042C25.177 162.342 24.4196 161.336 34.3663 164.606C43.8586 167.725 46.7871 168.328 47.9988 167.221C49.6145 165.763 56.2288 144.886 56.9357 138.95C57.3396 135.328 56.1784 126.978 55.118 126.072C54.6636 125.67 51.3817 124.362 47.7464 123.104C36.1335 119.029 35.0227 118.728 34.4168 119.331Z" stroke="black" stroke-miterlimit="10"/>
<path d="M152.515 121.645C141.407 125.569 141.458 125.518 140.953 126.877C139.943 129.543 139.791 136.535 140.65 140.861C141.761 146.445 148.274 165.963 149.385 167.12C150.243 167.925 150.546 167.925 155.545 166.517C161.755 164.756 168.925 162.19 170.591 161.134C171.601 160.48 171.702 160.128 171.449 158.015C170.692 152.482 168.016 140.409 165.643 131.756C164.279 126.675 163.118 121.896 163.118 121.192C163.118 119.834 162.31 118.677 161.401 118.727C161.099 118.727 157.11 120.035 152.515 121.645Z" stroke="black" stroke-miterlimit="10"/>
<path d="M165.895 162.996C163.118 164.052 158.574 165.511 155.797 166.265C150.394 167.774 149.435 168.227 149.738 169.133C149.889 169.485 150.344 172.05 150.748 174.917C151.505 180.149 154.635 190.864 155.696 191.97C156.302 192.574 177.507 186.185 179.123 184.978C179.88 184.375 177.558 175.471 174.781 168.63C173.62 165.863 172.711 163.348 172.711 163.096C172.711 162.794 172.307 162.241 171.852 161.839C171.045 161.134 170.489 161.235 165.895 162.996Z" stroke="black" stroke-miterlimit="10"/>
<path d="M25.7322 162.241C24.369 163.851 19.421 177.332 18.2598 182.614C17.6539 185.331 17.9063 185.482 30.4782 189.506C37.8161 191.853 41.7206 192.658 42.1918 191.92C43.5045 189.858 45.8776 181.256 46.7359 175.521C47.1903 172.352 47.6952 169.586 47.7962 169.435C48.2001 168.731 46.4834 168.026 40.6771 166.467C37.3448 165.561 32.7503 164.103 30.4782 163.197C26.944 161.789 26.2371 161.638 25.7322 162.241Z" stroke="black" stroke-miterlimit="10"/>
<path d="M167.915 188.651C162.108 190.563 157.009 192.474 156.605 192.877C155.746 193.732 156.504 195.996 161.704 207.968C163.623 212.395 166.552 219.287 168.268 223.311C169.934 227.335 171.601 230.907 171.954 231.31C172.509 231.863 173.671 231.662 179.073 230.102C186.243 228.04 187.051 227.637 186.647 226.078C186.495 225.524 185.587 219.589 184.577 212.999C181.295 190.915 180.083 184.979 178.821 185.13C178.669 185.13 173.772 186.739 167.915 188.651Z" stroke="black" stroke-miterlimit="10"/>
<path d="M17.8053 186.236C16.9974 187.192 15.9876 192.122 12.6552 211.992C9.77721 229.146 9.72672 229.599 10.6356 230.404C12.0998 231.661 23.2583 234.629 24.2176 234.026C24.672 233.724 25.8838 231.41 26.9441 228.794C28.0549 226.178 31.0844 219.186 33.7099 213.25C40.6776 197.605 42.0409 194.034 41.233 193.229C40.8796 192.877 36.0325 191.116 30.529 189.405C25.0254 187.645 20.0269 186.085 19.421 185.884C18.7646 185.683 18.1082 185.834 17.8053 186.236Z" stroke="black" stroke-miterlimit="10"/>
<path d="M135.55 195.644C134.944 195.895 132.218 196.549 129.491 197.153C109.194 201.529 86.4225 201.429 65.9232 196.901C59.006 195.342 59.3594 195.04 56.9358 204.447C54.2598 214.86 53.5024 220.142 51.7858 239.459C51.4828 243.483 51.7353 243.785 56.8348 245.445C65.2668 248.162 75.2135 252.438 86.6245 258.172C98.0859 263.957 97.8334 263.957 111.617 257.166C121.665 252.236 132.369 247.759 139.64 245.445C145.295 243.634 145.093 244.188 144.184 233.624C142.972 219.287 142.063 213.602 138.983 201.781C137.368 195.493 137.115 195.04 135.55 195.644Z" stroke="black" stroke-miterlimit="10"/>
<path d="M184.779 228.039C184.678 228.19 182.052 228.995 179.023 229.85C171.651 231.963 171.752 231.812 173.115 237.195C173.856 240.113 173.856 243.349 173.115 246.904C172.105 252.035 172.105 252.387 172.863 257.77C173.317 260.788 173.822 265.667 173.974 268.585C174.327 275.175 175.135 276.533 177.559 274.471C178.972 273.213 179.023 273.062 179.275 267.227C179.444 263.27 179.898 261.978 180.638 263.353C182.254 266.372 182.658 272.71 181.497 277.891C180.436 282.721 180.436 284.029 181.497 285.085C182.204 285.789 182.355 285.789 183.314 284.934C184.122 284.23 184.274 284.18 184.072 284.733C183.92 285.186 184.122 285.789 184.476 286.141C185.587 286.997 188.818 282.922 191.242 277.539C192.655 274.37 193.413 273.314 193.766 273.666C195.028 274.924 195.887 272.006 196.341 265.064C196.897 257.417 196.392 255.405 191.191 243.081C189.929 240.062 188.868 236.943 188.868 236.088C188.868 234.328 187.505 229.398 186.748 228.442C186.243 227.838 185.183 227.637 184.779 228.039Z" stroke="black" stroke-miterlimit="10"/>
<path d="M9.27254 231.712C8.81812 232.366 8.36371 234.126 8.26273 235.535C8.11125 237.145 7.10144 240.213 5.58671 243.684C0.840569 254.5 0.133697 257.77 0.638606 265.315C1.14351 272.308 1.95137 274.773 3.36511 273.565C3.92051 273.112 4.07198 273.163 4.07198 273.716C4.07198 275.125 8.06076 282.922 9.82794 284.934C11.4436 286.795 11.6456 286.846 12.504 286.091C13.0089 285.689 13.6652 285.437 14.0187 285.538C14.3216 285.638 14.978 285.186 15.4324 284.532C16.1393 283.375 16.1393 282.922 15.3314 278.747C14.1702 273.163 14.4731 266.824 16.0383 263.806C16.7452 262.498 17.1491 263.722 17.2501 267.478C17.4521 272.811 17.553 273.163 18.8658 274.471C19.7746 275.376 20.5657 275.494 21.2389 274.823C22.0972 273.968 22.2992 272.962 22.5516 268.082C22.7031 264.913 23.1575 260.134 23.6119 257.518C24.3188 253.141 24.3188 252.286 23.4605 247.055C22.6526 241.722 22.6526 241.27 23.4605 238.302C24.4703 234.579 24.3188 234.327 20.0776 233.422C18.5124 233.07 15.5839 232.265 13.6148 231.611C11.2585 230.84 9.81111 230.873 9.27254 231.712Z" stroke="black" stroke-miterlimit="10"/>
<path d="M51.9877 244.791C51.0789 245.847 50.776 270.195 51.4828 281.06C52.6946 298.667 55.4716 321.052 56.5319 321.958C60.874 325.529 87.1289 325.479 88.9466 321.907C89.1486 321.505 89.6535 318.436 90.1079 315.116C90.5118 311.796 91.6731 303.647 92.6324 297.007C94.3491 285.236 95.7628 272.559 96.0657 266.12C96.1667 264.007 94.2817 261.928 90.4108 259.882C80.1108 254.449 63.8025 247.457 55.4716 244.942C52.947 244.137 52.4926 244.137 51.9877 244.791Z" stroke="black" stroke-miterlimit="10"/>
<path d="M138.125 245.898C128.481 249.218 122.018 251.985 111.012 257.468L100.257 262.801L100.358 267.831C100.611 277.288 106.467 321.053 107.679 322.26C110.002 324.574 126.815 325.48 134.59 323.719C140.195 322.461 140.7 322.109 141.053 318.538C141.255 316.928 142.063 309.734 142.871 302.541C145.042 283.677 145.597 273.515 145.345 258.575C145.193 247.81 145.042 245.295 144.436 244.691C143.729 244.037 143.022 244.188 138.125 245.898Z" stroke="black" stroke-miterlimit="10"/>
<path d="M56.6329 323.065C56.2794 323.417 56.0775 328.448 56.0775 338.508C56.0775 355.712 55.7745 354.605 61.1264 355.813C70.0126 357.775 83.9982 356.819 85.4119 354.102C87.1285 350.833 89.5016 324.876 88.1888 323.568C87.7344 323.065 86.8761 323.065 84.0992 323.669C76.4753 325.279 66.9832 325.077 59.7632 323.216C57.8951 322.713 57.0368 322.663 56.6329 323.065Z" stroke="black" stroke-miterlimit="10"/>
<path d="M107.629 323.116C106.467 324.575 109.194 352.543 110.709 354.455C112.425 356.618 127.471 357.523 134.843 355.914C140.548 354.656 140.144 355.964 140.093 338.609C140.043 330.36 139.891 323.317 139.69 323.015C139.488 322.663 138.579 322.713 136.761 323.166C129.289 325.178 118.736 325.279 111.567 323.468C109.093 322.864 107.932 322.764 107.629 323.116Z" stroke="black" stroke-miterlimit="10"/>
<path d="M56.2289 355.21C55.219 356.367 54.4112 370.301 54.7141 380.211C54.8656 385.845 55.7744 397.013 57.0367 408.18C58.1475 418.392 59.2078 428.654 59.4097 430.918C59.6117 433.785 60.0156 435.294 60.571 435.797C61.9847 437.105 68.296 437.809 72.6887 437.155C78.5455 436.25 78.596 436.25 79 429.157C79.4039 421.36 81.0196 408.08 82.6353 398.622C83.3421 394.447 84.3014 388.914 84.7559 386.298C85.8161 379.809 85.8666 356.92 84.8063 355.814C84.15 355.21 83.5946 355.21 80.5652 355.864C74.3044 357.172 64.2568 356.719 57.7941 354.858C57.1882 354.657 56.5318 354.807 56.2289 355.21Z" stroke="black" stroke-miterlimit="10"/>
<path d="M136.105 355.462C132.167 356.619 120.302 356.871 115.657 355.915C110.052 354.707 110.355 353.953 110.355 369.849C110.406 382.978 110.406 383.079 112.526 395.605C114.798 409.137 115.859 417.387 116.666 428.051C117.07 433.484 117.323 434.993 118.08 435.748C119.595 437.206 125.452 437.911 130.147 437.206C135.499 436.351 136.105 435.697 136.509 430.415C136.711 428.152 137.771 418.493 138.882 408.935C141.71 384.437 142.063 378.451 141.356 366.68C141.003 359.788 140.599 356.518 140.094 355.714C139.236 354.456 139.438 354.456 136.105 355.462Z" stroke="black" stroke-miterlimit="10"/>
<path d="M60.3187 436.704C60.0662 437.056 59.9652 438.716 60.0157 440.376C60.1167 442.036 59.8138 445.557 59.4098 448.173C58.9554 450.789 58.602 453.908 58.602 455.065C58.602 458.637 53.6539 465.629 43.3032 476.797C39.1125 481.324 37.6988 484.191 38.9105 485.65C39.264 486.053 39.7689 486.254 40.0718 486.053C40.3748 485.851 40.4758 486.204 40.2738 487.009C39.9204 488.266 41.5361 490.48 42.2429 489.775C42.4449 489.624 43.0003 489.976 43.5052 490.58C44.2121 491.486 44.5655 491.586 45.3229 491.133C46.0298 490.681 46.3832 490.832 47.1405 491.787C48.2009 493.146 49.1097 493.246 50.0185 492.19C50.6244 491.486 50.7759 491.536 51.7857 492.441C52.5431 493.146 53.5529 493.448 55.3201 493.448C57.5417 493.448 57.9456 493.246 59.9652 491.184C61.1265 489.926 62.3383 488.92 62.6412 488.92C64.055 488.92 67.5893 484.745 68.6497 481.928C69.9624 478.255 71.2752 476.595 73.6987 475.338C76.4252 473.98 78.6468 471.263 79.0508 468.798C79.5052 466.233 78.9498 461.303 77.9905 459.492C77.4856 458.435 77.3846 457.63 77.738 456.272C78.4954 453.556 78.3439 437.257 77.5865 436.653C77.1826 436.352 76.2233 436.352 74.7591 436.653C72.4365 437.207 63.0452 437.006 61.5809 436.402C61.076 436.201 60.5711 436.301 60.3187 436.704Z" stroke="black" stroke-miterlimit="10"/>
<path d="M117.878 436.704C117.323 437.609 117.171 453.053 117.727 455.669C118.03 457.027 118.03 458.083 117.727 458.435C116.868 459.441 116.212 466.384 116.717 468.999C117.222 471.816 118.282 473.175 121.817 475.438C124.392 477.048 125.099 478.054 126.765 482.531C127.825 485.348 131.056 488.92 132.571 488.92C132.975 488.92 133.833 489.624 134.439 490.48C136.711 493.548 140.953 494.504 143.124 492.492C144.134 491.536 144.336 491.486 144.941 492.19C145.8 493.246 147.113 493.146 148.223 491.938C148.93 491.184 149.284 491.083 149.839 491.486C150.344 491.938 150.748 491.838 151.556 491.133C152.111 490.63 152.919 490.178 153.323 490.127C154.888 489.876 155.595 488.819 155.242 487.26C155.04 486.355 155.141 485.902 155.444 486.103C156.302 486.606 157.16 485.047 156.857 483.537C156.504 481.928 154.636 479.513 148.829 472.973C146.709 470.559 143.174 465.981 141.003 462.862C136.661 456.423 136.913 457.58 136.055 442.791C135.702 436.301 135.449 435.949 132.319 436.653C129.946 437.207 120.554 437.006 119.141 436.402C118.636 436.201 118.131 436.301 117.878 436.704Z" stroke="black" stroke-miterlimit="10"/>
<path d="M379.511 0.963636C376.279 1.7685 372.493 3.98189 369.564 6.79892C364.263 11.8293 362.294 17.1113 362.294 26.166C362.294 31.5989 362.243 32.0013 361.385 31.7498C360.88 31.6492 359.971 31.951 359.466 32.4038C357.8 33.9129 358.153 37.233 360.476 42.2131C361.587 44.5774 362.496 46.841 362.496 47.2938C362.496 48.7023 364.414 50.0605 365.475 49.4066C366.333 48.8532 366.484 49.1047 367.242 52.0727C367.696 53.8836 368.453 55.9461 368.958 56.7007C370.978 59.7692 369.867 69.981 367.242 72.8986C365.071 75.3132 365.374 75.5647 371.584 76.7217C381.278 78.5327 403.544 77.5266 405.917 75.112C406.574 74.458 406.473 74.2065 404.806 72.6974C402.534 70.6349 402.13 68.9246 402.13 62.0329C402.13 57.9583 402.282 56.7007 402.989 55.9964C403.443 55.4431 404.049 54.0345 404.402 52.7769C405.463 48.5011 405.412 48.652 406.271 49.3563C407.129 50.0102 409.452 47.9477 409.452 46.4889C409.452 46.1368 410.259 44.1246 411.269 42.0622C413.44 37.4342 413.794 33.7117 412.077 32.0516C411.067 30.9952 410.966 30.9952 410.057 31.8001C409.098 32.6553 409.098 32.605 409.552 29.7879C411.471 18.218 405.816 6.89953 395.92 2.37215C392.234 0.661811 383.701 -0.0424473 379.511 0.963636Z" stroke="black" stroke-miterlimit="10"/>
<path d="M358.709 78.2318C355.376 79.9924 350.933 82.0549 348.863 82.7592C342.855 84.9223 343.158 84.0168 343.865 96.4421C344.319 104.994 344.319 108.918 343.764 116.061C342.956 126.977 343.107 132.008 344.369 140.811C347.096 159.474 347.449 169.334 345.834 183.822C344.773 193.681 344.672 193.379 349.166 194.436C370.271 199.416 394.355 199.617 418.793 195.039C426.569 193.581 426.165 194.436 425.003 182.312C423.59 167.573 423.943 160.832 427.376 139.201C428.319 133.299 428.571 125.937 428.134 117.117C427.629 106.805 427.629 101.774 428.083 94.5808C428.437 88.2927 428.487 85.1235 428.134 84.7211C427.831 84.369 426.215 83.6144 424.448 82.9604C422.731 82.3568 418.288 80.2943 414.602 78.3827C410.125 76.1022 406.339 75.2806 403.242 75.9178C396.476 77.3263 387.691 78.0306 381.935 77.6784C377.34 77.3766 367.343 75.9178 365.525 75.2638C365.121 75.1129 362.041 76.4208 358.709 78.2318Z" stroke="black" stroke-miterlimit="10"/>
<path d="M429.144 85.275C427.174 87.589 427.225 122.651 429.144 124.965C429.8 125.77 431.82 125.217 442.978 121.142C453.177 117.42 452.773 117.772 452.268 112.54C451.46 104.391 448.431 95.5875 444.998 91.5631C442.675 88.7964 438.08 86.1302 434.193 85.275C431.331 84.6043 429.648 84.6043 429.144 85.275Z" stroke="black" stroke-miterlimit="10"/>
<path d="M336.745 85.9285C328.01 88.6953 322.86 96.0398 320.336 109.27C318.771 117.621 318.67 117.47 327.859 120.941C337.402 124.563 341.895 125.82 342.653 125.066C344.672 123.053 344.773 88.0916 342.754 85.677C341.996 84.7715 340.128 84.8218 336.745 85.9285Z" stroke="black" stroke-miterlimit="10"/>
<path d="M447.876 119.23C445.856 119.984 440.959 121.695 437.02 123.003C433.132 124.311 429.598 125.568 429.295 125.87C427.982 126.876 428.487 134.019 430.406 141.565C432.426 149.513 437.98 166.416 438.888 167.321C440.05 168.529 460.499 162.391 461.66 160.53C462.114 159.776 458.63 142.823 455.702 131.655C454.137 125.669 452.874 120.286 452.874 119.783C452.874 117.821 451.814 117.721 447.876 119.23Z" stroke="black" stroke-miterlimit="10"/>
<path d="M319.679 118.778C319.326 119.13 319.074 119.935 319.074 120.589C319.074 121.243 317.811 126.525 316.297 132.41C314.782 138.296 312.863 146.898 311.954 151.627C310.911 157.294 310.81 160.497 311.651 161.235C314.58 163.75 331.646 168.73 332.959 167.422C334.019 166.316 340.532 147.804 342.855 139.302C343.158 138.044 343.41 134.775 343.36 132.008C343.259 126.474 342.804 125.519 340.078 124.965C339.219 124.764 334.473 123.154 329.576 121.394C319.377 117.721 320.437 118.023 319.679 118.778Z" stroke="black" stroke-miterlimit="10"/>
<path d="M456.61 162.744C454.338 163.7 449.693 165.209 446.361 166.114C442.978 167.02 439.999 168.026 439.696 168.328C438.484 169.535 443.634 190.511 445.553 192.121C446.209 192.674 447.977 192.222 455.499 189.908C467.92 185.984 469.334 185.33 469.132 183.167C468.98 181.054 462.77 162.844 461.811 161.537C461.205 160.782 461.508 160.732 456.61 162.744Z" stroke="black" stroke-miterlimit="10"/>
<path d="M310.389 162.291C309.43 163.448 305.946 172.402 303.926 178.992C301.907 185.481 301.705 185.229 310.995 188.248C322.658 192.071 325.637 192.825 326.445 192.02C328.616 189.857 333.362 170.138 332.099 168.629C331.796 168.277 330.635 167.724 329.474 167.472C325.536 166.466 317.306 163.85 314.428 162.643C310.995 161.184 311.348 161.235 310.389 162.291Z" stroke="black" stroke-miterlimit="10"/>
<path d="M464.74 186.689C462.518 187.493 457.519 189.154 453.632 190.361C449.744 191.568 446.361 192.876 446.108 193.279C445.553 194.134 446.512 196.699 454.692 215.815C457.822 223.21 460.549 229.8 460.7 230.504C461.407 233.271 462.265 233.472 467.416 232.114C472.869 230.655 475.09 229.8 475.949 228.743C476.958 227.536 470.748 186.99 469.385 185.783C468.93 185.381 467.668 185.632 464.74 186.689Z" stroke="black" stroke-miterlimit="10"/>
<path d="M302.21 186.689C301.351 187.997 299.836 196.046 296.807 214.96C294.333 230.706 293.677 229.297 304.785 232.315C309.177 233.472 309.076 233.573 311.651 227.335C312.611 224.971 315.792 217.828 318.67 211.489C326.344 194.687 326.445 194.335 325.435 193.178C324.93 192.625 323.921 192.072 323.214 191.87C321.901 191.569 305.189 186.337 303.724 185.784C303.32 185.633 302.664 185.985 302.21 186.689Z" stroke="black" stroke-miterlimit="10"/>
<path d="M345.228 194.487C344.369 195.493 341.239 206.862 340.078 213.049C339.219 217.778 338.008 228.442 337.2 239.308C336.829 244.473 337.267 247.692 338.512 248.967C351.64 262.348 377.895 268.988 383.904 260.436C384.409 259.766 385.452 260.101 387.034 261.442C388.347 262.599 390.064 263.656 390.972 263.756C395.82 264.511 397.688 264.561 401.475 264.058C411.926 262.65 424.145 256.512 431.365 249.067C432.678 247.692 433.132 243.601 432.728 236.793C431.719 220.343 429.901 208.27 426.619 196.599C425.761 193.631 425.458 193.531 418.793 194.889C398.142 198.964 375.421 199.165 354.417 195.342C350.681 194.638 347.247 193.984 346.793 193.883C346.339 193.732 345.682 194.034 345.228 194.487Z" stroke="black" stroke-miterlimit="10"/>
<path d="M294.636 229.851C293.778 230.806 293.02 233.422 292.616 236.39C292.465 237.648 291.455 240.616 290.344 243.031C289.234 245.445 287.466 249.721 286.507 252.588C285.295 256.043 284.874 260.084 285.245 264.712C285.851 272.207 286.002 272.912 287.163 274.22C287.719 274.873 288.123 274.974 288.527 274.622C288.981 274.22 289.637 275.175 291.001 278.244C293.273 283.274 296.353 286.745 297.615 285.689C298.069 285.287 298.322 284.582 298.17 284.029C298.036 283.425 298.288 283.392 298.928 283.928C299.736 284.683 299.988 284.733 300.695 284.13C301.553 283.425 301.553 282.62 300.392 276.131C299.837 272.962 300.039 268.535 300.897 266.372C301.301 265.265 301.452 265.718 302.109 270.799C302.412 273.163 303.674 275.125 304.835 275.125C306.703 275.125 306.956 274.119 306.956 267.378C306.956 263.354 307.259 259.329 307.764 256.814C308.521 253.293 308.521 252.236 307.966 248.967C306.804 242.427 306.804 240.415 307.966 237.195C309.228 233.473 309.43 233.624 301.604 231.108C295.999 229.297 295.242 229.146 294.636 229.851Z" stroke="black" stroke-miterlimit="10"/>
<path d="M473.676 229.901C472.515 230.404 469.637 231.31 467.365 231.913C461.761 233.423 461.811 233.372 463.073 237.749C463.814 240.163 463.864 243.282 463.225 247.106C462.417 252.136 462.366 253.293 462.972 256.814C463.326 258.977 463.578 263.706 463.528 267.278C463.477 272.66 463.578 273.918 464.285 274.673C466.153 276.735 468.223 273.817 468.779 268.384C469.233 264.058 469.991 264.964 470.395 270.346C470.647 273.314 470.445 275.025 469.536 278.596C468.375 283.023 468.375 283.174 469.284 284.18C470.142 285.136 470.243 285.136 471.152 284.381C471.96 283.627 472.061 283.627 472.061 284.281C472.061 284.734 472.414 285.337 472.869 285.74C473.929 286.645 476.908 283.174 479.432 278.043C480.897 275.025 481.503 274.27 481.957 274.673C482.866 275.427 484.481 272.711 484.885 269.894C486.097 260.587 485.895 257.619 483.472 250.577C482.159 246.904 480.594 242.83 479.937 241.522C479.281 240.214 478.625 237.699 478.423 235.888C478.069 232.668 477.11 229.7 476.302 229.197C476.05 229.096 474.888 229.398 473.676 229.901Z" stroke="black" stroke-miterlimit="10"/>
<path d="M337.2 249.318C335.988 250.727 336.341 276.332 337.705 289.964C340.381 316.776 340.936 320.599 342.299 321.253C349.115 324.473 371.533 324.272 374.664 321.002C375.168 320.499 375.825 318.135 376.33 314.865C376.784 311.947 377.794 305.408 378.602 300.277C380.621 287.701 381.581 280.255 382.187 271.653C382.843 263.253 382.641 262.699 379.662 263.555C376.38 264.51 368.554 264.158 363.404 262.85C355.477 260.838 346.54 256.109 340.229 250.526C338.109 248.664 337.806 248.564 337.2 249.318Z" stroke="black" stroke-miterlimit="10"/>
<path d="M428.285 251.884C421.166 257.569 413.239 261.492 405.413 263.303C400.717 264.36 392.841 264.41 389.912 263.404C387.186 262.448 386.731 262.951 386.731 266.825C386.731 270.949 387.993 284.079 389.256 292.631C392.689 316.575 393.295 320.147 394.153 320.952C397.991 324.624 423.741 324.423 427.477 320.751C428.133 320.097 429.951 307.923 431.617 292.58C433.738 273.666 434.243 251.331 432.627 249.721C432.021 249.117 431.365 249.419 428.285 251.884Z" stroke="black" stroke-miterlimit="10"/>
<path d="M342.047 321.858C341.895 322.159 341.693 329.453 341.592 338.055C341.492 353.398 341.492 353.7 342.501 354.354C346.894 357.171 367.948 357.372 371.028 354.656C372.543 353.348 374.108 343.84 374.663 332.824C375.219 321.506 375.219 321.455 371.23 322.361C363 324.272 351.438 323.97 343.208 321.606C342.754 321.455 342.249 321.606 342.047 321.858Z" stroke="black" stroke-miterlimit="10"/>
<path d="M393.901 322.11C392.689 323.669 395.365 352.594 396.88 354.405C398.697 356.568 413.238 357.473 421.064 355.864C428.234 354.455 427.628 356.165 427.527 338.006C427.476 327.543 427.274 322.21 426.921 321.909C426.568 321.657 425.154 321.758 423.336 322.21C415.409 324.021 404.1 324.021 396.981 322.21C395.012 321.707 394.254 321.657 393.901 322.11Z" stroke="black" stroke-miterlimit="10"/>
<path d="M341.694 355.462C339.674 357.725 339.32 381.016 341.088 395.755C343.158 413.462 343.915 420.606 344.47 427.9C345.177 437.105 344.874 436.653 351.236 437.608C355.427 438.262 362.142 437.558 363.556 436.301C364.162 435.747 364.465 434.288 364.717 430.415C365.272 422.366 366.838 410.092 368.756 399.377C371.735 382.727 371.786 381.821 371.735 368.742C371.634 354.858 371.634 354.808 368.302 355.663C362.445 357.071 350.125 356.669 343.562 354.808C342.905 354.657 342.198 354.908 341.694 355.462Z" stroke="black" stroke-miterlimit="10"/>
<path d="M422.327 355.512C418.439 356.518 403.747 356.669 400.414 355.713C396.526 354.556 396.577 354.305 396.577 371.609C396.577 385.493 396.678 387.153 397.991 395.353C400.212 408.985 401.273 417.99 401.929 427.296C402.282 432.93 402.686 436.099 403.141 436.552C405.11 438.564 419.045 438.313 421.166 436.25C421.772 435.596 422.226 433.534 422.832 428.805C423.286 425.183 424.397 416.682 425.407 409.841C428.689 386.6 429.295 376.439 428.133 362.001C427.527 354.154 427.527 354.104 422.327 355.512Z" stroke="black" stroke-miterlimit="10"/>
<path d="M345.935 437.206C345.531 437.609 345.329 439.571 345.329 442.841C345.329 445.658 344.975 449.934 344.521 452.449C344.067 454.914 343.865 458.083 344.016 459.391C344.168 460.85 344.067 461.655 343.764 461.504C343.511 461.302 341.643 462.56 339.623 464.22C336.897 466.484 335.685 467.188 334.877 466.987C334.12 466.786 333.564 466.987 333.11 467.741C332.706 468.446 331.949 468.798 330.888 468.798C329.121 468.798 327.657 470.106 327.657 471.665C327.657 472.822 329.121 474.331 330.333 474.331C330.787 474.331 331.393 474.784 331.696 475.337C332.504 476.847 336.998 479.664 340.583 480.921C342.35 481.575 344.874 482.933 346.137 483.99C351.994 488.819 361.082 488.366 363.758 483.135C364.919 480.821 365.071 474.432 364.111 470.005C363.758 468.345 363.657 462.51 363.758 452.7C363.909 443.042 363.808 437.76 363.505 437.357C363.102 436.854 362.445 436.854 360.829 437.206C358.709 437.709 348.762 437.458 347.348 436.905C346.894 436.703 346.288 436.854 345.935 437.206Z" stroke="black" stroke-miterlimit="10"/>
<path d="M402.838 437.408C402.434 437.911 402.333 439.672 402.585 443.545C402.787 446.513 402.737 450.538 402.434 452.55C402.131 454.864 402.182 457.681 402.484 460.196C402.838 463.365 402.787 465.378 402.181 469.251C400.515 479.714 401.424 484.544 405.514 486.405C409.755 488.317 415.208 487.411 419.702 483.99C421.166 482.884 423.994 481.425 425.963 480.67C428.285 479.765 430.507 478.507 432.022 477.149C433.385 475.942 434.95 474.835 435.606 474.634C439.04 473.527 438.636 469.05 435.102 469.05C433.789 469.05 433.385 468.899 433.738 468.496C434.445 467.641 432.981 466.685 431.567 467.038C430.658 467.239 429.649 466.635 426.872 464.321C424.751 462.46 423.186 461.504 422.832 461.756C422.479 462.007 422.277 460.749 422.226 457.832C421.721 435.195 421.923 436.201 418.743 437.056C416.319 437.71 407.281 437.76 405.059 437.157C403.848 436.804 403.292 436.855 402.838 437.408Z" stroke="black" stroke-miterlimit="10"/>
</svg>
